<?xml version="1.0" standalone="no"?>
<!DOCTYPE svg PUBLIC "-//W3C//DTD SVG 20010904//EN"
 "http://www.w3.org/TR/2001/REC-SVG-20010904/DTD/svg10.dtd">
<svg version="1.0" xmlns="http://www.w3.org/2000/svg"
 width="546.000000pt" height="546.000000pt" viewBox="0 0 546.000000 546.000000"
 preserveAspectRatio="xMidYMid meet">
<metadata>
Created by potrace 1.11, written by Peter Selinger 2001-2013
</metadata>
<g transform="translate(0.000000,546.000000) scale(0.100000,-0.100000)"
fill="#000000" stroke="none">
<path d="M2696 5342 c-2 -1 -54 -5 -117 -7 -63 -3 -127 -8 -144 -11 -16 -2
-50 -7 -74 -9 -24 -2 -69 -10 -100 -16 -31 -7 -65 -13 -76 -14 -11 -1 -27 -5
-35 -8 -8 -3 -28 -8 -45 -12 -32 -6 -142 -38 -211 -61 -138 -44 -478 -203
-527 -245 -7 -5 -34 -24 -62 -42 -324 -208 -633 -533 -824 -867 -45 -77 -150
-290 -144 -290 3 0 1 -6 -4 -12 -18 -23 -107 -284 -119 -348 -3 -14 -8 -34
-11 -45 -4 -11 -8 -24 -9 -30 -4 -20 -16 -83 -28 -145 -3 -15 -9 -60 -23 -155
-16 -116 -7 -575 13 -670 3 -11 7 -38 10 -60 3 -22 9 -56 14 -75 5 -19 11 -46
14 -60 17 -87 86 -307 131 -415 19 -46 139 -290 158 -320 6 -11 33 -52 60 -92
26 -40 47 -76 47 -82 0 -5 3 -11 8 -13 4 -1 30 -33 58 -71 95 -124 219 -258
334 -362 77 -70 198 -165 209 -165 6 0 11 -4 11 -9 0 -6 18 -20 40 -32 22 -13
40 -26 40 -30 0 -4 8 -9 18 -13 9 -3 26 -11 37 -18 11 -7 31 -20 45 -29 14 -9
50 -29 80 -46 30 -16 64 -35 75 -41 30 -17 175 -82 220 -99 22 -8 49 -19 60
-24 64 -28 329 -101 410 -113 17 -2 30 -5 30 -6 0 -1 9 -3 20 -4 11 -2 47 -6
80 -11 33 -4 71 -9 85 -11 14 -2 71 -6 128 -8 56 -3 106 -7 110 -9 4 -3 16 -1
27 3 11 4 34 4 52 -1 18 -4 33 -4 33 0 0 3 30 6 68 6 74 -1 223 17 347 41 44
9 92 18 107 20 128 23 418 128 588 214 67 34 273 155 300 177 8 6 66 51 128
99 105 81 283 249 360 340 69 80 201 262 256 352 61 100 186 351 186 374 0 8
3 18 7 22 24 23 126 371 139 471 2 17 6 41 9 55 22 113 29 202 29 425 1 254
-7 346 -48 538 -3 15 -8 37 -10 50 -17 85 -83 298 -116 372 -9 22 -21 51 -25
65 -11 36 -138 284 -147 288 -4 2 -8 8 -8 13 0 18 -164 256 -230 333 -58 69
-138 155 -190 206 -71 69 -170 158 -170 153 0 -3 -7 3 -16 11 -9 9 -32 29 -52
44 -21 15 -39 29 -42 32 -11 11 -179 119 -250 160 -146 85 -365 180 -520 226
-104 30 -272 70 -340 80 -19 3 -46 7 -60 10 -49 8 -176 18 -247 18 -40 1 -73
3 -73 6 0 5 -79 7 -84 2z"/>
</g>
</svg>
