<svg width="36" height="36" viewBox="0 0 36 36" fill="none" xmlns="http://www.w3.org/2000/svg">
<path d="M4.29391 11.9482C4.1632 11.8174 3.9818 11.7422 3.79688 11.7422C3.61195 11.7422 3.43062 11.8174 3.29977 11.9482C3.16891 12.079 3.09375 12.2604 3.09375 12.4453C3.09375 12.6302 3.16891 12.8116 3.29977 12.9424C3.43055 13.0732 3.61195 13.1484 3.79688 13.1484C3.9818 13.1484 4.1632 13.0732 4.29391 12.9424C4.42477 12.8116 4.5 12.6302 4.5 12.4453C4.5 12.2604 4.42477 12.079 4.29391 11.9482Z" fill="white"/>
<path d="M30.7969 0H16.5703C16.1821 0 15.8672 0.314859 15.8672 0.703125C15.8672 1.09139 16.1821 1.40625 16.5703 1.40625H30.7969C31.1846 1.40625 31.5 1.72167 31.5 2.10938V33.8906C31.5 34.2783 31.1846 34.5938 30.7969 34.5938H5.20312C4.81542 34.5938 4.5 34.2783 4.5 33.8906V15.0703C4.5 14.682 4.18514 14.3672 3.79688 14.3672C3.40861 14.3672 3.09375 14.682 3.09375 15.0703V33.8906C3.09375 35.0537 4.04002 36 5.20312 36H30.7969C31.96 36 32.9062 35.0537 32.9062 33.8906V2.10938C32.9062 0.946266 31.96 0 30.7969 0Z" fill="white"/>
<path d="M18 2.8125C17.5216 2.8125 17.0408 2.84906 16.571 2.92106C16.1872 2.97998 15.9237 3.33879 15.9825 3.72263C16.0414 4.10646 16.4004 4.36957 16.7841 4.31107C17.1837 4.24976 17.5928 4.21875 18 4.21875C22.3811 4.21875 25.9454 7.78303 25.9454 12.1641C25.9454 14.1097 25.2421 15.8937 24.0769 17.2766C23.5613 16.3899 22.8571 15.6251 22.0023 15.0319C21.5034 14.6857 20.9674 14.4094 20.4063 14.2048C21.0467 13.5788 21.4453 12.7065 21.4453 11.7423V11.0568C21.4453 9.15694 19.8998 7.6114 18 7.6114C16.1003 7.6114 14.5547 9.15694 14.5547 11.0568V11.7423C14.5547 12.7065 14.9532 13.5788 15.5937 14.2048C15.0327 14.4094 14.4967 14.6857 13.9978 15.0319C13.1389 15.628 12.4318 16.3971 11.9156 17.2891C11.0278 16.234 10.4072 14.9363 10.1644 13.4887C10.1002 13.1058 9.73732 12.8475 9.35468 12.9116C8.97169 12.9757 8.71329 13.3383 8.77749 13.7213C9.13903 15.8771 10.2582 17.8503 11.9289 19.2774C13.6186 20.7209 15.7747 21.5158 18 21.5158C23.1565 21.5158 27.3516 17.3207 27.3516 12.1642C27.3516 7.0077 23.1565 2.8125 18 2.8125ZM15.961 11.0567C15.961 9.93234 16.8757 9.01758 18 9.01758C19.1243 9.01758 20.0391 9.93234 20.0391 11.0567V11.7423C20.0391 12.8666 19.1243 13.7813 18 13.7813C16.8757 13.7813 15.961 12.8666 15.961 11.7423V11.0567ZM18 20.1095C16.0964 20.1095 14.3365 19.4448 12.959 18.3178C13.9032 16.4017 15.8333 15.1876 18 15.1876C20.1622 15.1876 22.0887 16.3967 23.035 18.3059C21.6634 19.4323 19.9093 20.1095 18 20.1095Z" fill="white"/>
<path d="M24.4938 27.9845H14.5095C14.1212 27.9845 13.8063 28.2994 13.8063 28.6876C13.8063 29.0759 14.1212 29.3907 14.5095 29.3907H24.4938C24.8822 29.3907 25.197 29.0759 25.197 28.6876C25.197 28.2994 24.8821 27.9845 24.4938 27.9845Z" fill="white"/>
<path d="M12.003 24.2529C11.8723 24.122 11.6908 24.0469 11.5059 24.0469C11.321 24.0469 11.1396 24.1221 11.0088 24.2529C10.878 24.3837 10.8028 24.5651 10.8028 24.75C10.8028 24.9356 10.8781 25.1163 11.0088 25.247C11.1396 25.3779 11.321 25.4531 11.5059 25.4531C11.6908 25.4531 11.8723 25.3779 12.003 25.247C12.1345 25.1163 12.209 24.9349 12.209 24.75C12.209 24.5651 12.1345 24.3837 12.003 24.2529Z" fill="white"/>
<path d="M12.003 28.1904C11.8723 28.0595 11.6915 27.9844 11.5059 27.9844C11.321 27.9844 11.1396 28.0596 11.0088 28.1904C10.878 28.3212 10.8028 28.5026 10.8028 28.6875C10.8028 28.8731 10.8781 29.0538 11.0088 29.1845C11.1396 29.3154 11.321 29.3906 11.5059 29.3906C11.6908 29.3906 11.8723 29.3154 12.003 29.1845C12.1345 29.0538 12.209 28.8731 12.209 28.6875C12.209 28.5026 12.1345 28.3212 12.003 28.1904Z" fill="white"/>
<path d="M24.4938 24.047H14.5095C14.1212 24.047 13.8063 24.3619 13.8063 24.7501C13.8063 25.1384 14.1212 25.4532 14.5095 25.4532H24.4938C24.8822 25.4532 25.197 25.1384 25.197 24.7501C25.197 24.3619 24.8821 24.047 24.4938 24.047Z" fill="white"/>
<path d="M11.3643 4.05204C11.0896 3.77754 10.6445 3.77754 10.3699 4.05204L8.08009 6.34183L7.29759 5.55933C7.02288 5.28483 6.5778 5.28483 6.30316 5.55933C6.02859 5.83397 6.02859 6.27919 6.30316 6.55376L7.58284 7.83344C7.72017 7.97069 7.90002 8.03939 8.08002 8.03939C8.26002 8.03939 8.43988 7.97069 8.57727 7.83351L11.3643 5.04647C11.6389 4.77183 11.6389 4.32661 11.3643 4.05204Z" fill="white"/>
<path d="M8.85938 0C5.6802 0 3.09375 2.58645 3.09375 5.76562C3.09375 8.94481 5.6802 11.5312 8.85938 11.5312C12.0386 11.5312 14.625 8.94481 14.625 5.76562C14.625 2.58645 12.0386 0 8.85938 0ZM8.85938 10.125C6.4556 10.125 4.5 8.1694 4.5 5.76562C4.5 3.36185 6.4556 1.40625 8.85938 1.40625C11.2631 1.40625 13.2188 3.36185 13.2188 5.76562C13.2188 8.1694 11.2631 10.125 8.85938 10.125Z" fill="white"/>
</svg>
