<svg width="89" height="89" viewBox="0 0 89 89" fill="none" xmlns="http://www.w3.org/2000/svg">
<circle cx="44.5" cy="44.5" r="44.5" fill="#835EF8"/>
<path d="M27.3674 36.9353C27.204 36.7717 26.9772 36.6777 26.7461 36.6777C26.5149 36.6777 26.2883 36.7718 26.1247 36.9353C25.9611 37.0987 25.8672 37.3255 25.8672 37.5566C25.8672 37.7878 25.9611 38.0146 26.1247 38.1779C26.2882 38.3415 26.5149 38.4355 26.7461 38.4355C26.9772 38.4355 27.204 38.3415 27.3674 38.1779C27.531 38.0146 27.625 37.7878 27.625 37.5566C27.625 37.3255 27.531 37.0987 27.3674 36.9353Z" fill="white"/>
<path d="M60.4961 22H42.7129C42.2276 22 41.834 22.3936 41.834 22.8789C41.834 23.3642 42.2276 23.7578 42.7129 23.7578H60.4961C60.9807 23.7578 61.375 24.1521 61.375 24.6367V64.3633C61.375 64.8479 60.9807 65.2422 60.4961 65.2422H28.5039C28.0193 65.2422 27.625 64.8479 27.625 64.3633V40.8379C27.625 40.3525 27.2314 39.959 26.7461 39.959C26.2608 39.959 25.8672 40.3525 25.8672 40.8379V64.3633C25.8672 65.8172 27.05 67 28.5039 67H60.4961C61.95 67 63.1328 65.8172 63.1328 64.3633V24.6367C63.1328 23.1828 61.95 22 60.4961 22Z" fill="white"/>
<path d="M44.5 25.5156C43.902 25.5156 43.301 25.5613 42.7137 25.6513C42.2339 25.725 41.9046 26.1735 41.9782 26.6533C42.0517 27.1331 42.5005 27.462 42.9801 27.3888C43.4796 27.3122 43.9909 27.2734 44.5 27.2734C49.9764 27.2734 54.4317 31.7288 54.4317 37.2052C54.4317 39.6371 53.5526 41.8671 52.0961 43.5957C51.4516 42.4874 50.5713 41.5314 49.5028 40.7899C48.8792 40.3571 48.2092 40.0117 47.5079 39.756C48.3084 38.9735 48.8066 37.8831 48.8066 36.6779V35.821C48.8066 33.4462 46.8747 31.5142 44.5 31.5142C42.1253 31.5142 40.1934 33.4462 40.1934 35.821V36.6779C40.1934 37.8831 40.6915 38.9735 41.4921 39.756C40.7908 40.0117 40.1209 40.3571 39.4972 40.7899C38.4236 41.535 37.5398 42.4964 36.8945 43.6113C35.7847 42.2925 35.009 40.6704 34.7055 38.8609C34.6252 38.3823 34.1716 38.0594 33.6933 38.1394C33.2146 38.2197 32.8916 38.6729 32.9718 39.1516C33.4238 41.8463 34.8227 44.3129 36.9111 46.0968C39.0232 47.9011 41.7183 48.8948 44.4999 48.8948C50.9455 48.8948 56.1895 43.6509 56.1895 37.2053C56.1895 30.7596 50.9456 25.5156 44.5 25.5156ZM41.9512 35.8209C41.9512 34.4154 43.0946 33.272 44.5 33.272C45.9054 33.272 47.0488 34.4154 47.0488 35.8209V36.6778C47.0488 38.0832 45.9054 39.2267 44.5 39.2267C43.0946 39.2267 41.9512 38.0832 41.9512 36.6778V35.8209ZM44.5 47.1369C42.1204 47.1369 39.9205 46.306 38.1988 44.8973C39.379 42.5021 41.7917 40.9845 44.5 40.9845C47.2027 40.9845 49.6108 42.4958 50.7937 44.8823C49.0792 46.2904 46.8866 47.1369 44.5 47.1369Z" fill="white"/>
<path d="M52.6173 56.9806H40.1368C39.6515 56.9806 39.2579 57.3742 39.2579 57.8595C39.2579 58.3449 39.6515 58.7384 40.1368 58.7384H52.6173C53.1027 58.7384 53.4962 58.3449 53.4962 57.8595C53.4962 57.3742 53.1026 56.9806 52.6173 56.9806Z" fill="white"/>
<path d="M37.0038 52.3161C36.8403 52.1525 36.6135 52.0586 36.3824 52.0586C36.1512 52.0586 35.9245 52.1526 35.761 52.3161C35.5975 52.4796 35.5035 52.7063 35.5035 52.9375C35.5035 53.1694 35.5976 53.3954 35.761 53.5588C35.9245 53.7224 36.1512 53.8164 36.3824 53.8164C36.6135 53.8164 36.8403 53.7224 37.0038 53.5588C37.1681 53.3954 37.2613 53.1687 37.2613 52.9375C37.2613 52.7063 37.1681 52.4796 37.0038 52.3161Z" fill="white"/>
<path d="M37.0038 57.238C36.8403 57.0744 36.6144 56.9805 36.3824 56.9805C36.1512 56.9805 35.9245 57.0745 35.761 57.238C35.5975 57.4015 35.5035 57.6282 35.5035 57.8594C35.5035 58.0913 35.5976 58.3173 35.761 58.4807C35.9245 58.6442 36.1512 58.7383 36.3824 58.7383C36.6135 58.7383 36.8403 58.6442 37.0038 58.4807C37.1681 58.3173 37.2613 58.0914 37.2613 57.8594C37.2613 57.6282 37.1681 57.4015 37.0038 57.238Z" fill="white"/>
<path d="M52.6173 52.0588H40.1368C39.6515 52.0588 39.2579 52.4523 39.2579 52.9377C39.2579 53.423 39.6515 53.8166 40.1368 53.8166H52.6173C53.1027 53.8166 53.4962 53.423 53.4962 52.9377C53.4962 52.4523 53.1026 52.0588 52.6173 52.0588Z" fill="white"/>
<path d="M36.2054 27.0651C35.862 26.7219 35.3057 26.7219 34.9624 27.0651L32.1001 29.9273L31.122 28.9492C30.7786 28.606 30.2222 28.606 29.8789 28.9492C29.5357 29.2925 29.5357 29.849 29.8789 30.1922L31.4785 31.7918C31.6502 31.9634 31.875 32.0492 32.1 32.0492C32.325 32.0492 32.5498 31.9634 32.7216 31.7919L36.2054 28.3081C36.5486 27.9648 36.5486 27.4083 36.2054 27.0651Z" fill="white"/>
<path d="M33.0742 22C29.1002 22 25.8672 25.2331 25.8672 29.207C25.8672 33.181 29.1002 36.4141 33.0742 36.4141C37.0482 36.4141 40.2812 33.181 40.2812 29.207C40.2812 25.2331 37.0482 22 33.0742 22ZM33.0742 34.6562C30.0695 34.6562 27.625 32.2117 27.625 29.207C27.625 26.2023 30.0695 23.7578 33.0742 23.7578C36.0789 23.7578 38.5234 26.2023 38.5234 29.207C38.5234 32.2117 36.0789 34.6562 33.0742 34.6562Z" fill="white"/>
</svg>
