<svg width="89" height="89" viewBox="0 0 89 89" fill="none" xmlns="http://www.w3.org/2000/svg">
<circle cx="44.5" cy="44.5" r="44.5" fill="#835EF8"/>
<g clip-path="url(#clip0)">
<path d="M63.5566 22.1155C63.2824 21.959 62.9453 21.9617 62.6737 22.1223L46.5674 31.6465C46.1496 31.8936 46.0111 32.4325 46.2582 32.8503C46.5052 33.2681 47.0441 33.4065 47.462 33.1595L59.0181 26.3261L37.4931 48.6603L26.7874 45.3849L40.7589 37.1232C41.1767 36.8761 41.3152 36.3371 41.0681 35.9193C40.8211 35.5016 40.2821 35.363 39.8643 35.6101L24.1776 44.886C23.8779 45.0633 23.711 45.4007 23.7522 45.7465C23.7935 46.0924 24.0349 46.3812 24.3678 46.4831L37.1532 50.3945L42.7937 60.6613C42.7996 60.6719 42.8057 60.6809 42.8119 60.6889C42.9061 60.8459 43.0471 60.9741 43.2231 61.0481C43.3332 61.0944 43.449 61.117 43.5639 61.117C43.7892 61.117 44.0109 61.0304 44.1784 60.8666L50.6642 54.5279L62.8639 58.2603C62.9483 58.2861 63.0349 58.2988 63.121 58.2988C63.307 58.2988 63.4907 58.2397 63.6438 58.1265C63.8678 57.9607 64 57.6985 64 57.4199V22.8789C64 22.5633 63.8307 22.2718 63.5566 22.1155ZM42.8416 50.9362C42.7399 51.0833 42.6853 51.2578 42.6853 51.4367V56.813L38.8336 49.8024L55.8775 32.1179L42.8416 50.9362ZM44.4431 58.1502V52.6248L48.7489 53.9421L44.4431 58.1502ZM62.2422 56.2319L44.9718 50.9483L62.2422 26.0169V56.2319Z" fill="white"/>
<path d="M33.4512 52.5488C33.1079 52.2055 32.5516 52.2055 32.2082 52.5488L24.0034 60.7535C23.6602 61.0967 23.6602 61.6533 24.0034 61.9966C24.1752 62.1681 24.4001 62.2539 24.625 62.2539C24.8499 62.2539 25.0748 62.1681 25.2465 61.9965L33.4512 53.7917C33.7945 53.4486 33.7945 52.8921 33.4512 52.5488Z" fill="white"/>
<path d="M22.5219 63.478C22.1786 63.135 21.6223 63.135 21.279 63.4781L19.2575 65.4996C18.9143 65.8428 18.9143 66.3994 19.2575 66.7427C19.4291 66.9142 19.654 67 19.8789 67C20.1039 67 20.3288 66.9141 20.5004 66.7426L22.5219 64.7211C22.8651 64.3779 22.8651 63.8213 22.5219 63.478Z" fill="white"/>
<path d="M31.5375 65.4479C31.3741 65.2844 31.1474 65.1903 30.9162 65.1903C30.6841 65.1903 30.4583 65.2844 30.2948 65.4479C30.1313 65.6113 30.0373 65.8372 30.0373 66.0692C30.0373 66.3004 30.1312 66.5272 30.2948 66.6906C30.4583 66.8541 30.685 66.9482 30.9162 66.9482C31.1474 66.9482 31.3741 66.8541 31.5375 66.6906C31.701 66.5272 31.7951 66.3004 31.7951 66.0692C31.7951 65.8372 31.7011 65.6113 31.5375 65.4479Z" fill="white"/>
<path d="M38.0768 58.9083C37.7338 58.5651 37.1774 58.5651 36.8338 58.9083L32.488 63.2541C32.1448 63.5973 32.1448 64.1538 32.488 64.4971C32.6597 64.6687 32.8846 64.7545 33.1095 64.7545C33.3344 64.7545 33.5593 64.6686 33.7309 64.4971L38.0768 60.1513C38.42 59.8081 38.42 59.2516 38.0768 58.9083Z" fill="white"/>
<path d="M53.0756 58.5747C52.7323 58.2316 52.1759 58.2316 51.8326 58.5747L47.475 62.9323C47.1318 63.2755 47.1318 63.8321 47.475 64.1754C47.6467 64.3469 47.8716 64.4328 48.0965 64.4328C48.3214 64.4328 48.5463 64.3469 48.7179 64.1754L53.0756 59.8177C53.4188 59.4745 53.4188 58.918 53.0756 58.5747Z" fill="white"/>
<path d="M43.917 33.9804C43.7535 33.8169 43.5267 33.7229 43.2956 33.7229C43.0644 33.7229 42.8377 33.8169 42.6742 33.9804C42.5108 34.1439 42.4167 34.3706 42.4167 34.6026C42.4167 34.8338 42.5107 35.0597 42.6742 35.2231C42.8377 35.3875 43.0644 35.4807 43.2956 35.4807C43.5267 35.4807 43.7535 35.3875 43.917 35.2231C44.0804 35.0597 44.1745 34.8338 44.1745 34.6026C44.1745 34.3706 44.0805 34.1439 43.917 33.9804Z" fill="white"/>
</g>
<defs>
<clipPath id="clip0">
<rect width="45" height="45" fill="white" transform="translate(19 22)"/>
</clipPath>
</defs>
</svg>
