<svg width="89" height="89" viewBox="0 0 89 89" fill="none" xmlns="http://www.w3.org/2000/svg">
<circle cx="44.5" cy="44.5" r="44.5" fill="#835EF8"/>
<path d="M57.775 60.8572C57.376 60.5805 56.8284 60.68 56.552 61.0789C56.2841 61.4656 55.9805 61.8416 55.6493 62.1966C55.4273 62.4347 55.122 62.7218 54.7898 63.0044C54.4201 63.3191 54.3755 63.8737 54.69 64.2435C54.8639 64.4477 55.1111 64.5527 55.3598 64.5527C55.5612 64.5527 55.7636 64.4839 55.9291 64.3431C56.3167 64.0131 56.6647 63.6855 56.9348 63.3953C57.3235 62.9789 57.6808 62.5364 57.9969 62.0801C58.2733 61.6811 58.174 61.1336 57.775 60.8572Z" fill="white"/>
<path d="M53.9459 64.798C53.7397 64.3585 53.2166 64.1694 52.777 64.3755L52.7494 64.3879C52.3053 64.5838 52.1042 65.1027 52.3003 65.5468C52.4453 65.8755 52.7672 66.0711 53.1048 66.0711C53.2233 66.0711 53.3438 66.0469 53.4592 65.996C53.4806 65.9866 53.5019 65.977 53.5232 65.967C53.9627 65.7608 54.1519 65.2376 53.9459 64.798Z" fill="white"/>
<path d="M64.3743 29.2852H24.6257C23.1778 29.2852 22 30.4632 22 31.911V56.5424C22 57.9901 23.1778 59.168 24.6257 59.168H43.1342C43.9188 62.4876 45.6931 64.8387 47.2437 66.345C49.5071 68.5438 52.1016 69.7148 53.1043 69.7148C54.107 69.7148 56.7015 68.5439 58.965 66.345C60.5156 64.8387 62.29 62.4876 63.0745 59.1681H64.3743C65.8221 59.1681 67 57.9902 67 56.5425V31.911C67 30.4632 65.8221 29.2852 64.3743 29.2852ZM61.7265 55.5661C61.7266 60.1968 59.589 63.2685 57.7957 65.0299C55.6685 67.1194 53.4864 67.9321 53.1043 67.9568C52.7222 67.9321 50.5401 67.1194 48.4128 65.0299C46.6197 63.2685 44.4821 60.1968 44.4821 55.5661V51.2378C47.5082 50.3627 50.3397 49.165 53.1046 47.5911C55.8072 49.125 58.7656 50.376 61.7265 51.2373V55.5661ZM65.2422 56.5424C65.2422 57.0209 64.8528 57.4102 64.3743 57.4102H63.3801C63.4475 56.8212 63.4844 56.2071 63.4844 55.5661V50.5714C63.4844 50.1747 63.2186 49.8273 62.8358 49.7233C59.6443 48.8566 56.4327 47.5061 53.5483 45.8178C53.2741 45.6573 52.9346 45.6575 52.6602 45.818C49.6941 47.5541 46.6562 48.8315 43.3729 49.7233C42.9901 49.8273 42.7243 50.1748 42.7243 50.5714V55.5661C42.7243 56.2071 42.7611 56.8212 42.8285 57.4102H24.6257C24.1472 57.4102 23.7578 57.0208 23.7578 56.5424V41.5897H65.2422V56.5424ZM65.2422 39.832H23.7578V36.3166H65.2422V39.832ZM65.2422 34.5587H23.7578V31.911C23.7578 31.4324 24.1472 31.043 24.6257 31.043H64.3743C64.8528 31.043 65.2422 31.4324 65.2422 31.911V34.5587Z" fill="white"/>
<path d="M32.5466 47.7424C32.0167 47.7424 31.4935 47.8495 31.0092 48.0538C30.5361 47.8533 30.0161 47.7424 29.4708 47.7424C27.29 47.7424 25.5157 49.5166 25.5157 51.6973C25.5157 53.878 27.2899 55.6524 29.4708 55.6524C30.0161 55.6524 30.5361 55.5415 31.0091 55.341C31.4935 55.5452 32.0167 55.6524 32.5466 55.6524C34.7275 55.6524 36.5018 53.878 36.5018 51.6973C36.5018 49.5166 34.7275 47.7424 32.5466 47.7424ZM29.4708 53.8946C28.2592 53.8946 27.2735 52.909 27.2735 51.6973C27.2735 50.4857 28.2592 49.5002 29.4708 49.5002C30.6823 49.5002 31.668 50.4857 31.668 51.6973C31.668 52.9089 30.6823 53.8946 29.4708 53.8946ZM32.7644 53.8838C33.1819 53.2571 33.4258 52.5052 33.4258 51.6974C33.4258 50.8896 33.1819 50.1379 32.7645 49.5111C33.8742 49.6208 34.7439 50.5595 34.7439 51.6974C34.7439 52.8353 33.8742 53.7741 32.7644 53.8838Z" fill="white"/>
<path d="M30.9152 43.7872H26.3944C25.909 43.7872 25.5155 44.1807 25.5155 44.6661C25.5155 45.1514 25.909 45.545 26.3944 45.545H30.9152C31.4006 45.545 31.7941 45.1513 31.7941 44.6661C31.7941 44.1807 31.4006 43.7872 30.9152 43.7872Z" fill="white"/>
<path d="M33.5133 43.7872H33.4716C32.9862 43.7872 32.5927 44.1807 32.5927 44.6661C32.5927 45.1514 32.9862 45.545 33.4716 45.545H33.5133C33.9986 45.545 34.3922 45.1513 34.3922 44.6661C34.3922 44.1807 33.9986 43.7872 33.5133 43.7872Z" fill="white"/>
<path d="M57.9287 53.5452C57.5857 53.2022 57.0293 53.202 56.6859 53.5451L51.9858 58.2449L49.5228 55.7817C49.1795 55.4388 48.623 55.4386 48.2798 55.7817C47.9366 56.125 47.9365 56.6816 48.2798 57.0248L51.3643 60.1094C51.5359 60.281 51.7609 60.3669 51.9858 60.3669C52.2107 60.3669 52.4357 60.281 52.6072 60.1094L57.9287 54.7882C58.272 54.4451 58.272 53.8886 57.9287 53.5452Z" fill="white"/>
</svg>
