<svg width="36" height="36" viewBox="0 0 36 36" fill="none" xmlns="http://www.w3.org/2000/svg">
<path d="M28.62 27.0857C28.3008 26.8644 27.8627 26.944 27.6416 27.2631C27.4273 27.5725 27.1844 27.8733 26.9194 28.1573C26.7419 28.3478 26.4976 28.5774 26.2318 28.8035C25.9361 29.0552 25.9004 29.499 26.152 29.7948C26.2911 29.9582 26.4889 30.0421 26.6879 30.0421C26.849 30.0421 27.0109 29.9871 27.1433 29.8745C27.4534 29.6105 27.7317 29.3484 27.9479 29.1163C28.2588 28.7831 28.5447 28.4291 28.7975 28.0641C29.0187 27.7449 28.9392 27.3069 28.62 27.0857Z" fill="white"/>
<path d="M25.5567 30.2384C25.3918 29.8868 24.9733 29.7355 24.6216 29.9004L24.5996 29.9103C24.2443 30.0671 24.0834 30.4822 24.2403 30.8375C24.3563 31.1004 24.6138 31.2569 24.8838 31.2569C24.9787 31.2569 25.0751 31.2375 25.1673 31.1968C25.1845 31.1893 25.2015 31.1816 25.2186 31.1736C25.5701 31.0087 25.7215 30.5901 25.5567 30.2384Z" fill="white"/>
<path d="M33.8994 1.82819H2.10058C0.942256 1.82819 0 2.77058 0 3.92877V23.6339C0 24.7921 0.942256 25.7344 2.10058 25.7344H16.9074C17.5351 28.3901 18.9545 30.2709 20.195 31.476C22.0057 33.235 24.0813 34.1718 24.8835 34.1718C25.6856 34.1718 27.7612 33.2351 29.572 31.476C30.8125 30.2709 32.232 28.3901 32.8596 25.7345H33.8994C35.0577 25.7345 36 24.7921 36 23.634V3.92877C36 2.77058 35.0577 1.82819 33.8994 1.82819ZM31.7812 22.8528C31.7813 26.5575 30.0712 29.0148 28.6365 30.4239C26.9348 32.0955 25.1891 32.7457 24.8835 32.7654C24.5778 32.7457 22.832 32.0955 21.1303 30.4239C19.6958 29.0148 17.9857 26.5575 17.9857 22.8528V19.3902C20.4065 18.6901 22.6717 17.732 24.8837 16.4728C27.0458 17.7 29.4125 18.7008 31.7812 19.3898V22.8528ZM34.5938 23.6339C34.5938 24.0167 34.2822 24.3281 33.8994 24.3281H33.1041C33.158 23.857 33.1875 23.3656 33.1875 22.8528V18.8571C33.1875 18.5397 32.9749 18.2618 32.6687 18.1786C30.1154 17.4853 27.5461 16.4049 25.2386 15.0542C25.0193 14.9258 24.7477 14.926 24.5282 15.0544C22.1553 16.4433 19.7249 17.4652 17.0983 18.1786C16.7921 18.2619 16.5794 18.5398 16.5794 18.8571V22.8528C16.5794 23.3656 16.6089 23.857 16.6628 24.3281H2.10058C1.71773 24.3281 1.40625 24.0167 1.40625 23.6339V11.6718H34.5938V23.6339ZM34.5938 10.2656H1.40625V7.45325H34.5938V10.2656ZM34.5938 6.04693H1.40625V3.92877C1.40625 3.54592 1.71773 3.23443 2.10058 3.23443H33.8994C34.2822 3.23443 34.5938 3.54592 34.5938 3.92877V6.04693Z" fill="white"/>
<path d="M8.43727 16.5939C8.01335 16.5939 7.59478 16.6796 7.20736 16.843C6.82887 16.6827 6.4129 16.5939 5.97669 16.5939C4.23203 16.5939 2.81256 18.0133 2.81256 19.7578C2.81256 21.5024 4.23196 22.9219 5.97669 22.9219C6.4129 22.9219 6.82887 22.8332 7.20729 22.6728C7.59478 22.8362 8.01335 22.9219 8.43727 22.9219C10.182 22.9219 11.6015 21.5024 11.6015 19.7578C11.6015 18.0133 10.182 16.5939 8.43727 16.5939ZM5.97669 21.5157C5.00736 21.5157 4.21881 20.7272 4.21881 19.7578C4.21881 18.7886 5.00736 18.0002 5.97669 18.0002C6.94587 18.0002 7.73443 18.7886 7.73443 19.7578C7.73443 20.7271 6.94587 21.5157 5.97669 21.5157ZM8.61157 21.5071C8.94556 21.0057 9.14067 20.4042 9.14067 19.7579C9.14067 19.1117 8.94556 18.5103 8.61164 18.0089C9.49934 18.0967 10.1951 18.8476 10.1951 19.7579C10.1951 20.6683 9.49934 21.4193 8.61157 21.5071Z" fill="white"/>
<path d="M7.13216 13.4297H3.5155C3.12717 13.4297 2.81238 13.7445 2.81238 14.1329C2.81238 14.5211 3.12717 14.836 3.5155 14.836H7.13216C7.52049 14.836 7.83528 14.5211 7.83528 14.1329C7.83528 13.7445 7.52049 13.4297 7.13216 13.4297Z" fill="white"/>
<path d="M9.21063 13.4297H9.17731C8.78897 13.4297 8.47418 13.7445 8.47418 14.1329C8.47418 14.5211 8.78897 14.836 9.17731 14.836H9.21063C9.5989 14.836 9.91376 14.5211 9.91376 14.1329C9.91376 13.7445 9.5989 13.4297 9.21063 13.4297Z" fill="white"/>
<path d="M28.743 21.2362C28.4686 20.9617 28.0234 20.9616 27.7487 21.2361L23.9886 24.9959L22.0183 23.0254C21.7436 22.751 21.2984 22.7509 21.0238 23.0254C20.7493 23.3 20.7492 23.7453 21.0238 24.0198L23.4914 26.4875C23.6288 26.6248 23.8087 26.6935 23.9886 26.6935C24.1685 26.6935 24.3485 26.6248 24.4857 26.4875L28.7429 22.2306C29.0176 21.9561 29.0176 21.5109 28.743 21.2362Z" fill="white"/>
</svg>
