<svg width="27" height="27" viewBox="0 0 27 27" fill="none" xmlns="http://www.w3.org/2000/svg">
<g clip-path="url(#clip0)">
<path d="M24.4687 3.37497H2.53127C1.13544 3.37497 0 4.51041 0 5.90624V21.0937C0 22.4896 1.13544 23.625 2.53127 23.625H24.4687C25.8646 23.625 27 22.4896 27 21.0937V5.90624C27 4.51041 25.8646 3.37497 24.4687 3.37497V3.37497ZM24.4687 5.06246C24.5834 5.06246 24.6924 5.08625 24.7921 5.12779L13.5 14.9148L2.20781 5.12779C2.30752 5.0863 2.41657 5.06246 2.53121 5.06246H24.4687ZM24.4687 21.9375H2.53127C2.06573 21.9375 1.68749 21.5593 1.68749 21.0937V6.91064L12.9471 16.669C13.1062 16.8066 13.3031 16.875 13.5 16.875C13.6969 16.875 13.8938 16.8066 14.0529 16.669L25.3125 6.91064V21.0937C25.3125 21.5593 24.9343 21.9375 24.4687 21.9375V21.9375Z" fill="#828282"/>
</g>
<defs>
<clipPath id="clip0">
<rect width="27" height="27" fill="white"/>
</clipPath>
</defs>
</svg>
