<svg width="27" height="27" viewBox="0 0 27 27" fill="none" xmlns="http://www.w3.org/2000/svg">
<g clip-path="url(#clip0)">
<path d="M22.4648 26.1553H4.53516C3.1976 26.1553 2.10938 25.0671 2.10938 23.7295V10.9668C2.10938 10.5008 2.48711 10.123 2.95312 10.123C3.41914 10.123 3.79688 10.5008 3.79688 10.9668V23.7295C3.79688 24.1367 4.12805 24.4678 4.53516 24.4678H22.4648C22.872 24.4678 23.2031 24.1367 23.2031 23.7295V10.9668C23.2031 10.5008 23.5809 10.123 24.0469 10.123C24.5129 10.123 24.8906 10.5008 24.8906 10.9668V23.7295C24.8906 25.0671 23.8025 26.1553 22.4648 26.1553Z" fill="#828282"/>
<path d="M26.1565 13.9196C25.9405 13.9196 25.7246 13.8373 25.5599 13.6725L15.0663 3.17903C14.2028 2.31545 12.7977 2.31545 11.9341 3.17903L1.44062 13.6725C1.11113 14.0021 0.576881 14.0021 0.247397 13.6725C-0.0821401 13.3431 -0.0821401 12.8088 0.247397 12.4793L10.7409 1.98575C12.2624 0.464262 14.7381 0.464262 16.2596 1.98575L26.7531 12.4793C27.0826 12.8088 27.0826 13.343 26.7531 13.6725C26.5884 13.8373 26.3724 13.9196 26.1565 13.9196V13.9196Z" fill="#828282"/>
<path d="M16.875 26.1553H10.125C9.65899 26.1553 9.28125 25.7775 9.28125 25.3116V17.8233C9.28125 16.3694 10.4641 15.1866 11.918 15.1866H15.082C16.5359 15.1866 17.7188 16.3694 17.7188 17.8233V25.3116C17.7188 25.7775 17.341 26.1553 16.875 26.1553ZM10.9688 24.4678H16.0312V17.8233C16.0312 17.2999 15.6054 16.8741 15.082 16.8741H11.918C11.3946 16.8741 10.9688 17.2999 10.9688 17.8233V24.4678Z" fill="#828282"/>
</g>
<defs>
<clipPath id="clip0">
<rect width="27" height="27" fill="white"/>
</clipPath>
</defs>
</svg>
