<svg width="67" height="67" viewBox="0 0 67 67" fill="none" xmlns="http://www.w3.org/2000/svg">
<circle cx="33.5" cy="33.5" r="33.5" fill="url(#paint0_linear)"/>
<path d="M38.079 32.579L39.3388 31.3191C39.3788 31.2792 39.4105 31.2317 39.4321 31.1795C39.4537 31.1273 39.4648 31.0714 39.4648 31.0149C39.4648 30.9583 39.4537 30.9024 39.4321 30.8502C39.4105 30.798 39.3788 30.7505 39.3388 30.7106L38.9612 30.333L46.8485 22.4457L48.8456 21.737C48.9413 21.703 49.0219 21.6363 49.0731 21.5486L51.4446 17.4927C51.4926 17.4106 51.512 17.3149 51.4999 17.2206C51.4877 17.1262 51.4446 17.0386 51.3774 16.9713L50.0299 15.6238C49.9626 15.5565 49.8749 15.5134 49.7806 15.5013C49.6862 15.4891 49.5905 15.5086 49.5084 15.5566L45.4527 17.9281C45.3651 17.9794 45.2984 18.0599 45.2644 18.1556L44.5558 20.1527L36.6682 28.0401L36.2907 27.6625C36.2507 27.6225 36.2033 27.5908 36.1511 27.5692C36.0989 27.5476 36.0429 27.5365 35.9864 27.5365C35.9299 27.5365 35.8739 27.5476 35.8217 27.5692C35.7695 27.5908 35.7221 27.6225 35.6821 27.6625L34.4223 28.9223L31.9596 26.4596C32.5662 24.9894 32.7374 23.3758 32.4527 21.8111C32.1681 20.2463 31.4397 18.7964 30.3543 17.634C29.2689 16.4715 27.8722 15.6456 26.3306 15.2546C24.789 14.8636 23.1675 14.924 21.6592 15.4286C21.5897 15.4518 21.5272 15.4924 21.4778 15.5466C21.4284 15.6007 21.3936 15.6666 21.3767 15.738C21.3599 15.8093 21.3616 15.8838 21.3817 15.9543C21.4017 16.0249 21.4394 16.0891 21.4913 16.141L24.5166 19.1663L23.7964 22.758L20.0638 23.4177L17.1472 20.4808C17.0953 20.4287 17.0311 20.3907 16.9605 20.3705C16.8899 20.3502 16.8153 20.3483 16.7437 20.3649C16.6722 20.3816 16.606 20.4162 16.5516 20.4656C16.4972 20.515 16.4564 20.5774 16.4328 20.647C15.9255 22.1555 15.8627 23.7782 16.2522 25.3214C16.6416 26.8645 17.4667 28.2631 18.6291 29.3503C19.7916 30.4374 21.2422 31.1672 22.8079 31.4525C24.3737 31.7379 25.9885 31.5668 27.4597 30.9596L28.9248 32.4248L27.297 33.3154C27.2611 33.3351 27.2282 33.3597 27.1993 33.3886L17.4825 43.1055C16.8531 43.7365 16.4995 44.5914 16.4995 45.4827C16.4995 46.374 16.8531 47.229 17.4825 47.86L19.141 49.5185C19.772 50.148 20.6269 50.5015 21.5182 50.5015C22.4095 50.5015 23.2644 50.148 23.8954 49.5185L33.6121 39.8016C33.6411 39.7727 33.6657 39.7398 33.6854 39.704L34.576 38.0761L46.5681 50.068C46.8635 50.3635 47.2143 50.5979 47.6004 50.7578C47.9864 50.9177 48.4002 51 48.818 51C49.2359 51 49.6497 50.9177 50.0357 50.7578C50.4218 50.5979 50.7726 50.3635 51.068 50.068C51.3635 49.7725 51.5979 49.4218 51.7578 49.0357C51.9177 48.6496 52 48.2359 52 47.818C52 47.4001 51.9177 46.9864 51.7578 46.6003C51.5979 46.2143 51.3635 45.8635 51.068 45.568L38.079 32.579ZM37.2658 35.0225C37.123 35.1649 36.9296 35.2449 36.728 35.2449C36.5263 35.2449 36.3329 35.1649 36.1901 35.0225L31.9791 30.8115C31.8414 30.6678 31.7655 30.476 31.7676 30.277C31.7697 30.078 31.8497 29.8878 31.9904 29.7471C32.1311 29.6064 32.3213 29.5265 32.5203 29.5243C32.7192 29.5222 32.9111 29.5981 33.0547 29.7358L37.2657 33.9468C37.4081 34.0896 37.4881 34.283 37.4881 34.4847C37.4881 34.6863 37.4082 34.8797 37.2658 35.0225V35.0225ZM45.2328 20.6925C45.2781 20.6472 45.3127 20.5924 45.3341 20.532L46.0225 18.5915L49.6561 16.467L50.5341 17.3451L48.4096 20.9786L46.4691 21.667C46.4088 21.6884 46.354 21.723 46.3087 21.7683L38.3527 29.7245L37.277 28.6488L45.2328 20.6925ZM35.9865 28.5752L38.4261 31.0149L36.9886 32.4524L34.549 30.0127L35.9865 28.5752ZM27.861 30.1441C27.799 30.0821 27.7196 30.0405 27.6333 30.0249C27.547 30.0093 27.458 30.0205 27.3782 30.0569C25.9991 30.6806 24.4629 30.8704 22.9735 30.601C21.484 30.3316 20.1116 29.6159 19.0383 28.5486C18.1413 27.658 17.4878 26.5522 17.1403 25.337C16.7928 24.1217 16.7628 22.8376 17.0534 21.6075L19.612 24.1837C19.6609 24.233 19.721 24.2697 19.7872 24.2906C19.8534 24.3116 19.9237 24.3163 19.9921 24.3042L24.2354 23.5543C24.3207 23.5393 24.3994 23.4988 24.4613 23.4383C24.5232 23.3778 24.5654 23.3001 24.5824 23.2152L25.4058 19.1096C25.4198 19.0401 25.4163 18.9683 25.3958 18.9004C25.3753 18.8326 25.3383 18.7709 25.2882 18.7208L22.6184 16.0508C23.9705 15.7387 25.383 15.8112 26.696 16.2601C28.0091 16.709 29.1703 17.5164 30.0484 18.591C30.9264 19.6656 31.4862 20.9644 31.6644 22.3406C31.8427 23.7168 31.6322 25.1154 31.0569 26.3782C31.0205 26.458 31.0093 26.547 31.0249 26.6333C31.0405 26.7196 31.0821 26.7991 31.1441 26.8611L33.0157 28.7327C32.6594 28.6167 32.2739 28.628 31.925 28.7646C31.5761 28.9013 31.2854 29.1549 31.1027 29.482L30.3389 28.7182C30.299 28.6782 30.2515 28.6465 30.1993 28.6249C30.1471 28.6033 30.0912 28.5921 30.0347 28.5921C29.9782 28.5921 29.9222 28.6032 29.87 28.6249C29.8178 28.6465 29.7704 28.6782 29.7304 28.7181C29.6905 28.7581 29.6588 28.8055 29.6371 28.8577C29.6155 28.9099 29.6044 28.9659 29.6044 29.0224C29.6044 29.0789 29.6155 29.1348 29.6371 29.187C29.6587 29.2392 29.6904 29.2867 29.7304 29.3266L30.916 30.5123C30.9517 30.7556 31.0425 30.9876 31.1814 31.1905L29.712 31.9946L27.861 30.1441ZM32.9607 39.237L23.2871 48.9105C22.8176 49.379 22.1814 49.642 21.5182 49.642C20.855 49.642 20.2188 49.379 19.7493 48.9105L18.091 47.252C17.6226 46.7825 17.3595 46.1463 17.3595 45.4831C17.3595 44.8199 17.6226 44.1837 18.091 43.7142L27.7644 34.0406L31.7888 31.8382L35.163 35.2125L32.9607 39.237ZM50.4596 49.4598C50.244 49.6753 49.9881 49.8463 49.7064 49.963C49.4248 50.0797 49.1229 50.1397 48.8181 50.1397C48.5132 50.1397 48.2114 50.0797 47.9297 49.963C47.6481 49.8463 47.3921 49.6753 47.1766 49.4598L35.0073 37.2904L35.8115 35.8208C36.0164 35.9615 36.251 36.0531 36.4971 36.0884C36.5042 36.0972 36.5106 36.1069 36.519 36.1152L45.9671 45.5635C46.048 45.6431 46.1571 45.6875 46.2706 45.687C46.3841 45.6866 46.4928 45.6413 46.573 45.561C46.6533 45.4807 46.6986 45.372 46.6991 45.2585C46.6995 45.145 46.6551 45.0359 46.5755 44.955L37.5185 35.8979C37.8464 35.7161 38.1006 35.4257 38.2375 35.0766C38.3744 34.7276 38.3854 34.3418 38.2685 33.9856L50.4593 46.1765C50.6748 46.392 50.8458 46.6479 50.9625 46.9296C51.0792 47.2112 51.1392 47.5131 51.1392 47.818C51.1392 48.1228 51.0792 48.4247 50.9625 48.7064C50.8458 48.988 50.6748 49.2439 50.4593 49.4595L50.4596 49.4598Z" fill="white"/>
<defs>
<linearGradient id="paint0_linear" x1="33.5" y1="0" x2="33.5" y2="67" gradientUnits="userSpaceOnUse">
<stop stop-color="#926EF8"/>
<stop offset="1" stop-color="#E78AE9"/>
</linearGradient>
</defs>
</svg>
