<svg width="36" height="36" viewBox="0 0 36 36" fill="none" xmlns="http://www.w3.org/2000/svg">
<g clip-path="url(#clip0)">
<path d="M35.6452 0.0923814C35.4259 -0.0327748 35.1562 -0.0306655 34.939 0.0978658L22.0539 7.71721C21.7196 7.91486 21.6089 8.34601 21.8066 8.68028C22.0041 9.01448 22.4353 9.12522 22.7696 8.92764L32.0145 3.46091L14.7945 21.3282L6.22987 18.708L17.4071 12.0986C17.7414 11.9009 17.8521 11.4697 17.6545 11.1355C17.4569 10.8013 17.0257 10.6904 16.6914 10.8881L4.14209 18.3088C3.90232 18.4506 3.7688 18.7206 3.80177 18.9972C3.83475 19.2739 4.0279 19.505 4.29424 19.5865L14.5225 22.7156L19.035 30.9291C19.0397 30.9376 19.0445 30.9447 19.0495 30.9511C19.1248 31.0767 19.2377 31.1793 19.3785 31.2385C19.4666 31.2756 19.5592 31.2936 19.6511 31.2936C19.8313 31.2936 20.0087 31.2243 20.1427 31.0933L25.3313 26.0224L35.0911 29.0083C35.1586 29.0289 35.2279 29.0391 35.2968 29.0391C35.4456 29.0391 35.5925 28.9918 35.715 28.9012C35.8942 28.7686 36 28.5588 36 28.3359V0.703116C36 0.450624 35.8646 0.217467 35.6452 0.0923814ZM19.0733 23.149C18.9919 23.2666 18.9482 23.4062 18.9482 23.5493V27.8504L15.8669 22.2419L29.502 8.09437L19.0733 23.149ZM20.3545 28.9202V24.4998L23.7991 25.5537L20.3545 28.9202ZM34.5937 27.3855L20.7774 23.1586L34.5937 3.21355V27.3855Z" fill="white"/>
<path d="M11.561 24.439C11.2863 24.1645 10.8413 24.1645 10.5666 24.439L4.00274 31.0028C3.72817 31.2774 3.72817 31.7226 4.00274 31.9973C4.14013 32.1345 4.32006 32.2031 4.49999 32.2031C4.67992 32.2031 4.85985 32.1345 4.99717 31.9972L11.561 25.4334C11.8356 25.1589 11.8356 24.7137 11.561 24.439Z" fill="white"/>
<path d="M2.81754 33.1824C2.54289 32.908 2.09782 32.908 1.82318 33.1825L0.205989 34.7997C-0.0685815 35.0743 -0.0685815 35.5195 0.205989 35.7941C0.343309 35.9314 0.523239 36 0.703168 36C0.883098 36 1.06303 35.9313 1.20035 35.7941L2.81754 34.1769C3.09211 33.9023 3.09211 33.4571 2.81754 33.1824Z" fill="white"/>
<path d="M10.03 34.7583C9.89929 34.6275 9.71788 34.5523 9.53296 34.5523C9.34726 34.5523 9.16663 34.6275 9.03585 34.7583C8.90507 34.8891 8.82983 35.0698 8.82983 35.2554C8.82983 35.4403 8.905 35.6217 9.03585 35.7525C9.16663 35.8833 9.34804 35.9585 9.53296 35.9585C9.71788 35.9585 9.89929 35.8833 10.03 35.7525C10.1608 35.6217 10.2361 35.4403 10.2361 35.2554C10.2361 35.0698 10.1608 34.8891 10.03 34.7583Z" fill="white"/>
<path d="M15.2614 29.5267C14.987 29.2521 14.5419 29.2521 14.2671 29.5267L10.7904 33.0033C10.5158 33.2778 10.5158 33.7231 10.7904 33.9976C10.9277 34.1349 11.1077 34.2036 11.2876 34.2036C11.4675 34.2036 11.6474 34.1349 11.7848 33.9976L15.2614 30.521C15.536 30.2465 15.536 29.8012 15.2614 29.5267Z" fill="white"/>
<path d="M27.2604 29.2598C26.9858 28.9853 26.5407 28.9853 26.2661 29.2598L22.78 32.7459C22.5054 33.0204 22.5054 33.4656 22.78 33.7403C22.9173 33.8775 23.0972 33.9462 23.2771 33.9462C23.4571 33.9462 23.637 33.8775 23.7743 33.7403L27.2604 30.2542C27.535 29.9796 27.535 29.5344 27.2604 29.2598Z" fill="white"/>
<path d="M19.9336 9.58431C19.8028 9.45353 19.6214 9.3783 19.4365 9.3783C19.2515 9.3783 19.0701 9.45353 18.9394 9.58431C18.8086 9.71509 18.7333 9.8965 18.7333 10.0821C18.7333 10.267 18.8086 10.4477 18.9394 10.5785C19.0701 10.71 19.2515 10.7845 19.4365 10.7845C19.6214 10.7845 19.8028 10.71 19.9336 10.5785C20.0643 10.4477 20.1396 10.267 20.1396 10.0821C20.1396 9.8965 20.0644 9.71509 19.9336 9.58431Z" fill="white"/>
</g>
<defs>
<clipPath id="clip0">
<rect width="36" height="36" fill="white"/>
</clipPath>
</defs>
</svg>
