<svg width="27" height="27" viewBox="0 0 27 27" fill="none" xmlns="http://www.w3.org/2000/svg">
<path d="M21.2541 0.755888V0.753099C20.7749 0.271325 20.1234 0.000278926 19.4439 0H7.5533C6.14103 0.00460227 4.99737 1.14827 4.99277 2.56054V24.4367C4.99305 25.1162 5.26409 25.7676 5.74587 26.2469C6.22443 26.728 6.87475 26.999 7.5533 27H19.4467C20.1252 26.999 20.7756 26.728 21.2541 26.2469C21.7352 25.7683 22.0062 25.118 22.0072 24.4395V2.56333C22.0062 1.88477 21.7352 1.23445 21.2541 0.755888ZM13.5 25.2623C13.1179 25.2623 12.8083 24.9526 12.8083 24.5706C12.8083 24.1885 13.1179 23.8788 13.5 23.8788C13.8821 23.8788 14.1917 24.1885 14.1917 24.5706C14.1917 24.9526 13.8821 25.2623 13.5 25.2623ZM19.9739 20.9194C19.9739 21.8437 19.2246 22.593 18.3003 22.593H8.6969C7.77261 22.593 7.02335 21.8437 7.02335 20.9194V4.61622C7.02335 3.69193 7.77261 2.94267 8.6969 2.94267H18.3031C19.2274 2.94267 19.9767 3.69193 19.9767 4.61622L19.9739 20.9194Z" fill="#828282"/>
</svg>
