<svg width="52" height="30" viewBox="0 0 52 30" fill="none" xmlns="http://www.w3.org/2000/svg">
<rect width="52" height="30" fill="#8F1BDC"/>
<path d="M35.8512 7.26979C35.6781 7.10697 35.4051 7.06331 35.1789 7.14636L16.3509 14.0728C16.1423 14.1496 16.0052 14.3213 16.0001 14.513C15.9951 14.7044 16.1228 14.881 16.3275 14.9657L20.8232 16.8237L21.9435 22.4719C21.9798 22.6862 22.1802 22.8586 22.4411 22.8897C22.6286 22.9124 22.8149 22.8569 22.9438 22.7453L26.493 19.7627L31.5578 22.8031C31.7203 22.9002 31.9297 22.9216 32.1141 22.8602C32.2988 22.7988 32.434 22.6626 32.4731 22.4988L35.9887 7.69391C36.0234 7.54717 35.9785 7.38993 35.8512 7.26979ZM21.2872 15.918L17.9767 14.5498L31.0555 9.73836L21.2872 15.918ZM23.1208 17.3817L22.5759 19.6714L21.988 16.7072L29.1743 12.161L23.2806 17.1306C23.1977 17.2002 23.1427 17.2908 23.1208 17.3817ZM23.4774 20.9041L24.0923 18.3216L25.5262 19.1823L23.4774 20.9041ZM31.5012 21.5586L24.5977 17.4149L34.4598 9.09955L31.5012 21.5586Z" fill="white"/>
</svg>
